<?xml version="1.0" encoding="UTF-8" standalone="no"?>
<!DOCTYPE svg PUBLIC "-//W3C//DTD SVG 1.1//EN" "http://www.w3.org/Graphics/SVG/1.1/DTD/svg11.dtd">
<svg version="1.1" xmlns="http://www.w3.org/2000/svg" xmlns:xlink="http://www.w3.org/1999/xlink" preserveAspectRatio="xMidYMid meet" viewBox="0 0 640 640" width="640" height="640"><defs><path d="M620 320C620 485.57 485.57 620 320 620C154.43 620 20 485.57 20 320C20 154.43 154.43 20 320 20C485.57 20 620 154.43 620 320Z" id="b1KOFGn0uV"></path><path d="M570 320C570 457.98 457.98 570 320 570C182.02 570 70 457.98 70 320C70 182.02 182.02 70 320 70C457.98 70 570 182.02 570 320Z" id="bkLK0Xfsy"></path><path d="M520 320C520 430.38 430.38 520 320 520C209.62 520 120 430.38 120 320C120 209.62 209.62 120 320 120C430.38 120 520 209.62 520 320Z" id="bd601yk8F"></path><path d="M420 320C420 375.19 375.19 420 320 420C264.81 420 220 375.19 220 320C220 264.81 264.81 220 320 220C375.19 220 420 264.81 420 320Z" id="a1jUzn3kco"></path></defs><g><g><g><use xlink:href="#b1KOFGn0uV" opacity="1" fill="#008e76" fill-opacity="1"></use></g><g><use xlink:href="#bkLK0Xfsy" opacity="1" fill="#00bfa5" fill-opacity="1"></use></g><g><use xlink:href="#bd601yk8F" opacity="1" fill="#5df2d6" fill-opacity="1"></use></g><g><use xlink:href="#a1jUzn3kco" opacity="1" fill="#000000" fill-opacity="1"></use></g></g></g></svg>